<mxfile>
    <diagram id="creBVo1nBnuW2Nb8Xj_d" name="core">
        <mxGraphModel dx="952" dy="762" grid="1" gridSize="10" guides="1" tooltips="1" connect="1" arrows="1" fold="1" page="1" pageScale="1" pageWidth="850" pageHeight="1100" math="0" shadow="0">
            <root>
                <mxCell id="B0MaQuvVMIJv4OG2VFpb-0"/>
                <mxCell id="B0MaQuvVMIJv4OG2VFpb-1" parent="B0MaQuvVMIJv4OG2VFpb-0"/>
                <mxCell id="B0MaQuvVMIJv4OG2VFpb-6" style="edgeStyle=orthogonalEdgeStyle;rounded=0;orthogonalLoop=1;jettySize=auto;html=1;entryX=0;entryY=0.5;entryDx=0;entryDy=0;" parent="B0MaQuvVMIJv4OG2VFpb-1" source="B0MaQuvVMIJv4OG2VFpb-3" target="B0MaQuvVMIJv4OG2VFpb-4" edge="1">
                    <mxGeometry relative="1" as="geometry"/>
                </mxCell>
                <mxCell id="1_MfHRdvw4OCVQ7uJqAI-0" style="edgeStyle=orthogonalEdgeStyle;rounded=0;orthogonalLoop=1;jettySize=auto;html=1;entryX=0;entryY=0.5;entryDx=0;entryDy=0;" parent="B0MaQuvVMIJv4OG2VFpb-1" source="B0MaQuvVMIJv4OG2VFpb-3" target="B0MaQuvVMIJv4OG2VFpb-5" edge="1">
                    <mxGeometry relative="1" as="geometry"/>
                </mxCell>
                <mxCell id="B0MaQuvVMIJv4OG2VFpb-3" value="&lt;h1&gt;Kafka&lt;/h1&gt;&lt;p&gt;An Event Streaming platform&lt;/p&gt;" style="text;html=1;spacing=5;spacingTop=-20;whiteSpace=wrap;overflow=hidden;rounded=1;border=solid;strokeColor=#000000;" parent="B0MaQuvVMIJv4OG2VFpb-1" vertex="1">
                    <mxGeometry x="20" y="280" width="190" height="70" as="geometry"/>
                </mxCell>
                <mxCell id="1_MfHRdvw4OCVQ7uJqAI-3" style="edgeStyle=orthogonalEdgeStyle;rounded=0;orthogonalLoop=1;jettySize=auto;html=1;entryX=0;entryY=0.5;entryDx=0;entryDy=0;" parent="B0MaQuvVMIJv4OG2VFpb-1" source="B0MaQuvVMIJv4OG2VFpb-4" target="1_MfHRdvw4OCVQ7uJqAI-1" edge="1">
                    <mxGeometry relative="1" as="geometry"/>
                </mxCell>
                <mxCell id="1_MfHRdvw4OCVQ7uJqAI-4" style="edgeStyle=orthogonalEdgeStyle;rounded=0;orthogonalLoop=1;jettySize=auto;html=1;entryX=0;entryY=0.5;entryDx=0;entryDy=0;" parent="B0MaQuvVMIJv4OG2VFpb-1" source="B0MaQuvVMIJv4OG2VFpb-4" target="1_MfHRdvw4OCVQ7uJqAI-2" edge="1">
                    <mxGeometry relative="1" as="geometry"/>
                </mxCell>
                <mxCell id="B0MaQuvVMIJv4OG2VFpb-4" value="Server" style="rounded=1;whiteSpace=wrap;html=1;" parent="B0MaQuvVMIJv4OG2VFpb-1" vertex="1">
                    <mxGeometry x="305" y="190" width="120" height="60" as="geometry"/>
                </mxCell>
                <mxCell id="1_MfHRdvw4OCVQ7uJqAI-14" style="edgeStyle=orthogonalEdgeStyle;rounded=0;orthogonalLoop=1;jettySize=auto;html=1;" parent="B0MaQuvVMIJv4OG2VFpb-1" source="B0MaQuvVMIJv4OG2VFpb-5" target="1_MfHRdvw4OCVQ7uJqAI-12" edge="1">
                    <mxGeometry relative="1" as="geometry"/>
                </mxCell>
                <mxCell id="1_MfHRdvw4OCVQ7uJqAI-15" style="edgeStyle=orthogonalEdgeStyle;rounded=0;orthogonalLoop=1;jettySize=auto;html=1;entryX=0;entryY=0.5;entryDx=0;entryDy=0;" parent="B0MaQuvVMIJv4OG2VFpb-1" source="B0MaQuvVMIJv4OG2VFpb-5" target="1_MfHRdvw4OCVQ7uJqAI-13" edge="1">
                    <mxGeometry relative="1" as="geometry"/>
                </mxCell>
                <mxCell id="1_MfHRdvw4OCVQ7uJqAI-19" style="edgeStyle=orthogonalEdgeStyle;rounded=0;orthogonalLoop=1;jettySize=auto;html=1;" parent="B0MaQuvVMIJv4OG2VFpb-1" source="B0MaQuvVMIJv4OG2VFpb-5" target="1_MfHRdvw4OCVQ7uJqAI-5" edge="1">
                    <mxGeometry relative="1" as="geometry"/>
                </mxCell>
                <mxCell id="B0MaQuvVMIJv4OG2VFpb-5" value="Client" style="rounded=1;whiteSpace=wrap;html=1;sketch=0;glass=0;" parent="B0MaQuvVMIJv4OG2VFpb-1" vertex="1">
                    <mxGeometry x="305" y="370" width="120" height="60" as="geometry"/>
                </mxCell>
                <mxCell id="1_MfHRdvw4OCVQ7uJqAI-9" style="edgeStyle=orthogonalEdgeStyle;rounded=0;orthogonalLoop=1;jettySize=auto;html=1;" parent="B0MaQuvVMIJv4OG2VFpb-1" source="1_MfHRdvw4OCVQ7uJqAI-1" target="1_MfHRdvw4OCVQ7uJqAI-7" edge="1">
                    <mxGeometry relative="1" as="geometry"/>
                </mxCell>
                <mxCell id="1_MfHRdvw4OCVQ7uJqAI-1" value="broker" style="rounded=1;whiteSpace=wrap;html=1;strokeColor=#000000;" parent="B0MaQuvVMIJv4OG2VFpb-1" vertex="1">
                    <mxGeometry x="510" y="110" width="120" height="60" as="geometry"/>
                </mxCell>
                <mxCell id="1_MfHRdvw4OCVQ7uJqAI-10" style="edgeStyle=orthogonalEdgeStyle;rounded=0;orthogonalLoop=1;jettySize=auto;html=1;" parent="B0MaQuvVMIJv4OG2VFpb-1" source="1_MfHRdvw4OCVQ7uJqAI-2" target="1_MfHRdvw4OCVQ7uJqAI-8" edge="1">
                    <mxGeometry relative="1" as="geometry"/>
                </mxCell>
                <mxCell id="1_MfHRdvw4OCVQ7uJqAI-2" value="cluster" style="rounded=1;whiteSpace=wrap;html=1;strokeColor=#000000;" parent="B0MaQuvVMIJv4OG2VFpb-1" vertex="1">
                    <mxGeometry x="510" y="240" width="120" height="60" as="geometry"/>
                </mxCell>
                <mxCell id="1_MfHRdvw4OCVQ7uJqAI-5" value="Read, write and process streams of events in parallel at scale and in a fault tolerant manner even in the case of network problems or machine failures." style="text;html=1;fillColor=none;align=left;verticalAlign=middle;whiteSpace=wrap;rounded=0;strokeColor=#000000;" parent="B0MaQuvVMIJv4OG2VFpb-1" vertex="1">
                    <mxGeometry x="245" y="460" width="240" height="60" as="geometry"/>
                </mxCell>
                <mxCell id="1_MfHRdvw4OCVQ7uJqAI-7" value="storage layer" style="text;html=1;fillColor=none;align=center;verticalAlign=middle;whiteSpace=wrap;rounded=0;strokeColor=#000000;" parent="B0MaQuvVMIJv4OG2VFpb-1" vertex="1">
                    <mxGeometry x="730" y="125" width="130" height="30" as="geometry"/>
                </mxCell>
                <mxCell id="_nd24bV_BVmbwUGfrmig-21" style="edgeStyle=none;rounded=0;orthogonalLoop=1;jettySize=auto;html=1;" parent="B0MaQuvVMIJv4OG2VFpb-1" source="1_MfHRdvw4OCVQ7uJqAI-8" edge="1">
                    <mxGeometry relative="1" as="geometry">
                        <mxPoint x="1026" y="270" as="targetPoint"/>
                    </mxGeometry>
                </mxCell>
                <mxCell id="1_MfHRdvw4OCVQ7uJqAI-8" value="Kafka Connect to continuously import and export data as event streams&amp;nbsp;" style="text;html=1;fillColor=none;align=center;verticalAlign=middle;whiteSpace=wrap;rounded=0;strokeColor=#000000;" parent="B0MaQuvVMIJv4OG2VFpb-1" vertex="1">
                    <mxGeometry x="720" y="250" width="210" height="40" as="geometry"/>
                </mxCell>
                <mxCell id="1_MfHRdvw4OCVQ7uJqAI-21" style="rounded=0;orthogonalLoop=1;jettySize=auto;html=1;entryX=0;entryY=0.5;entryDx=0;entryDy=0;exitX=1;exitY=0.5;exitDx=0;exitDy=0;" parent="B0MaQuvVMIJv4OG2VFpb-1" source="1_MfHRdvw4OCVQ7uJqAI-12" target="1_MfHRdvw4OCVQ7uJqAI-20" edge="1">
                    <mxGeometry relative="1" as="geometry"/>
                </mxCell>
                <mxCell id="1_MfHRdvw4OCVQ7uJqAI-12" value="Producer" style="rounded=1;whiteSpace=wrap;html=1;glass=0;sketch=0;strokeColor=#000000;fillColor=none;" parent="B0MaQuvVMIJv4OG2VFpb-1" vertex="1">
                    <mxGeometry x="570" y="330" width="120" height="60" as="geometry"/>
                </mxCell>
                <mxCell id="1_MfHRdvw4OCVQ7uJqAI-22" style="edgeStyle=none;rounded=0;orthogonalLoop=1;jettySize=auto;html=1;entryX=0;entryY=0.5;entryDx=0;entryDy=0;exitX=1;exitY=0.5;exitDx=0;exitDy=0;" parent="B0MaQuvVMIJv4OG2VFpb-1" source="1_MfHRdvw4OCVQ7uJqAI-13" target="1_MfHRdvw4OCVQ7uJqAI-20" edge="1">
                    <mxGeometry relative="1" as="geometry"/>
                </mxCell>
                <mxCell id="1_MfHRdvw4OCVQ7uJqAI-13" value="Consumer" style="rounded=1;whiteSpace=wrap;html=1;glass=0;sketch=0;strokeColor=#000000;fillColor=none;" parent="B0MaQuvVMIJv4OG2VFpb-1" vertex="1">
                    <mxGeometry x="570" y="430" width="120" height="60" as="geometry"/>
                </mxCell>
                <mxCell id="_nd24bV_BVmbwUGfrmig-13" style="edgeStyle=none;rounded=0;orthogonalLoop=1;jettySize=auto;html=1;" parent="B0MaQuvVMIJv4OG2VFpb-1" source="1_MfHRdvw4OCVQ7uJqAI-20" target="_nd24bV_BVmbwUGfrmig-7" edge="1">
                    <mxGeometry relative="1" as="geometry"/>
                </mxCell>
                <mxCell id="1_MfHRdvw4OCVQ7uJqAI-20" value="Topic" style="ellipse;whiteSpace=wrap;html=1;rounded=1;glass=0;sketch=0;strokeColor=#000000;fillColor=none;" parent="B0MaQuvVMIJv4OG2VFpb-1" vertex="1">
                    <mxGeometry x="790" y="370" width="120" height="80" as="geometry"/>
                </mxCell>
                <mxCell id="_nd24bV_BVmbwUGfrmig-7" value="" style="html=1;shadow=0;dashed=0;shape=mxgraph.bootstrap.rrect;rSize=5;strokeColor=#DFDFDF;html=1;whiteSpace=wrap;fillColor=#FFFFFF;fontColor=#000000;rounded=1;glass=0;sketch=0;" parent="B0MaQuvVMIJv4OG2VFpb-1" vertex="1">
                    <mxGeometry x="980" y="380" width="200" height="60" as="geometry"/>
                </mxCell>
                <mxCell id="_nd24bV_BVmbwUGfrmig-8" value="Partitioned" style="strokeColor=inherit;fillColor=inherit;gradientColor=inherit;fontColor=inherit;html=1;shadow=0;dashed=0;shape=mxgraph.bootstrap.topButton;rSize=5;perimeter=none;whiteSpace=wrap;resizeWidth=1;align=left;spacing=10;" parent="_nd24bV_BVmbwUGfrmig-7" vertex="1">
                    <mxGeometry width="200" height="30" relative="1" as="geometry"/>
                </mxCell>
                <mxCell id="_nd24bV_BVmbwUGfrmig-9" value="Replicated (default 3)" style="strokeColor=inherit;fillColor=inherit;gradientColor=inherit;fontColor=inherit;html=1;shadow=0;dashed=0;perimeter=none;whiteSpace=wrap;resizeWidth=1;align=left;spacing=10;" parent="_nd24bV_BVmbwUGfrmig-7" vertex="1">
                    <mxGeometry width="200" height="30" relative="1" as="geometry">
                        <mxPoint y="30" as="offset"/>
                    </mxGeometry>
                </mxCell>
                <mxCell id="_nd24bV_BVmbwUGfrmig-42" value="Di" style="html=1;shadow=0;dashed=0;shape=mxgraph.bootstrap.rrect;rSize=5;strokeColor=#DFDFDF;html=1;whiteSpace=wrap;fillColor=#FFFFFF;fontColor=#000000;rounded=1;glass=0;sketch=0;" parent="B0MaQuvVMIJv4OG2VFpb-1" vertex="1">
                    <mxGeometry x="1030" y="140" width="310" height="210" as="geometry"/>
                </mxCell>
                <mxCell id="_nd24bV_BVmbwUGfrmig-43" value="Kafka Connect" style="html=1;shadow=0;dashed=0;shape=mxgraph.bootstrap.topButton;rSize=5;strokeColor=none;fillColor=#0085FC;fontColor=#ffffff;perimeter=none;whiteSpace=wrap;resizeWidth=1;align=left;spacing=10;" parent="_nd24bV_BVmbwUGfrmig-42" vertex="1">
                    <mxGeometry width="310" height="30" relative="1" as="geometry"/>
                </mxCell>
                <mxCell id="_nd24bV_BVmbwUGfrmig-44" value="A common framework for Kafka connectors" style="strokeColor=inherit;fillColor=inherit;gradientColor=inherit;fontColor=inherit;html=1;shadow=0;dashed=0;perimeter=none;whiteSpace=wrap;resizeWidth=1;align=left;spacing=10;" parent="_nd24bV_BVmbwUGfrmig-42" vertex="1">
                    <mxGeometry width="310" height="30" relative="1" as="geometry">
                        <mxPoint y="30" as="offset"/>
                    </mxGeometry>
                </mxCell>
                <mxCell id="_nd24bV_BVmbwUGfrmig-45" value="Distributed and standalone modes" style="strokeColor=inherit;fillColor=inherit;gradientColor=inherit;fontColor=inherit;html=1;shadow=0;dashed=0;perimeter=none;whiteSpace=wrap;resizeWidth=1;align=left;spacing=10;" parent="_nd24bV_BVmbwUGfrmig-42" vertex="1">
                    <mxGeometry width="310" height="30" relative="1" as="geometry">
                        <mxPoint y="60" as="offset"/>
                    </mxGeometry>
                </mxCell>
                <mxCell id="_nd24bV_BVmbwUGfrmig-46" value="REST interface" style="strokeColor=inherit;fillColor=inherit;gradientColor=inherit;fontColor=inherit;html=1;shadow=0;dashed=0;perimeter=none;whiteSpace=wrap;resizeWidth=1;align=left;spacing=10;" parent="_nd24bV_BVmbwUGfrmig-42" vertex="1">
                    <mxGeometry width="310" height="30" relative="1" as="geometry">
                        <mxPoint y="90" as="offset"/>
                    </mxGeometry>
                </mxCell>
                <mxCell id="_nd24bV_BVmbwUGfrmig-47" value="Streaming/batch integration" style="strokeColor=inherit;fillColor=inherit;gradientColor=inherit;fontColor=inherit;html=1;shadow=0;dashed=0;shape=mxgraph.bootstrap.bottomButton;rSize=5;perimeter=none;whiteSpace=wrap;resizeWidth=1;resizeHeight=0;align=left;spacing=10;" parent="_nd24bV_BVmbwUGfrmig-42" vertex="1">
                    <mxGeometry y="1" width="310" height="30" relative="1" as="geometry">
                        <mxPoint y="-30" as="offset"/>
                    </mxGeometry>
                </mxCell>
                <mxCell id="_nd24bV_BVmbwUGfrmig-48" value="Automatic offset management" style="strokeColor=inherit;fillColor=inherit;gradientColor=inherit;fontColor=inherit;html=1;shadow=0;dashed=0;perimeter=none;whiteSpace=wrap;resizeWidth=1;align=left;spacing=10;" parent="_nd24bV_BVmbwUGfrmig-42" vertex="1">
                    <mxGeometry y="120" width="310" height="30" as="geometry"/>
                </mxCell>
                <mxCell id="_nd24bV_BVmbwUGfrmig-49" value="Distributed and scalable by default" style="strokeColor=inherit;fillColor=inherit;gradientColor=inherit;fontColor=inherit;html=1;shadow=0;dashed=0;perimeter=none;whiteSpace=wrap;resizeWidth=1;align=left;spacing=10;" parent="_nd24bV_BVmbwUGfrmig-42" vertex="1">
                    <mxGeometry y="150" width="310" height="30" as="geometry"/>
                </mxCell>
                <mxCell id="_nd24bV_BVmbwUGfrmig-57" style="edgeStyle=none;rounded=0;orthogonalLoop=1;jettySize=auto;html=1;entryX=0.005;entryY=0.533;entryDx=0;entryDy=0;entryPerimeter=0;" parent="B0MaQuvVMIJv4OG2VFpb-1" source="_nd24bV_BVmbwUGfrmig-50" target="_nd24bV_BVmbwUGfrmig-54" edge="1">
                    <mxGeometry relative="1" as="geometry"/>
                </mxCell>
                <mxCell id="_nd24bV_BVmbwUGfrmig-50" value="Kafka APIs" style="html=1;shadow=0;dashed=0;shape=mxgraph.bootstrap.rrect;rSize=5;strokeWidth=1;whiteSpace=wrap;align=center;verticalAlign=middle;spacingLeft=0;fontStyle=0;fontSize=16;spacing=5;rounded=1;glass=0;sketch=0;fillColor=none;" parent="B0MaQuvVMIJv4OG2VFpb-1" vertex="1">
                    <mxGeometry x="20" y="690" width="120" height="60" as="geometry"/>
                </mxCell>
                <mxCell id="_nd24bV_BVmbwUGfrmig-51" value="" style="html=1;shadow=0;dashed=0;shape=mxgraph.bootstrap.rrect;rSize=5;strokeColor=#DFDFDF;html=1;whiteSpace=wrap;fillColor=#FFFFFF;fontColor=#000000;rounded=1;glass=0;sketch=0;" parent="B0MaQuvVMIJv4OG2VFpb-1" vertex="1">
                    <mxGeometry x="225" y="645" width="200" height="150" as="geometry"/>
                </mxCell>
                <mxCell id="_nd24bV_BVmbwUGfrmig-52" value="Admin API" style="strokeColor=inherit;fillColor=inherit;gradientColor=inherit;fontColor=inherit;html=1;shadow=0;dashed=0;shape=mxgraph.bootstrap.topButton;rSize=5;perimeter=none;whiteSpace=wrap;resizeWidth=1;align=left;spacing=10;" parent="_nd24bV_BVmbwUGfrmig-51" vertex="1">
                    <mxGeometry width="200" height="30" relative="1" as="geometry"/>
                </mxCell>
                <mxCell id="_nd24bV_BVmbwUGfrmig-53" value="Producer API" style="strokeColor=inherit;fillColor=inherit;gradientColor=inherit;fontColor=inherit;html=1;shadow=0;dashed=0;perimeter=none;whiteSpace=wrap;resizeWidth=1;align=left;spacing=10;" parent="_nd24bV_BVmbwUGfrmig-51" vertex="1">
                    <mxGeometry width="200" height="30" relative="1" as="geometry">
                        <mxPoint y="30" as="offset"/>
                    </mxGeometry>
                </mxCell>
                <mxCell id="_nd24bV_BVmbwUGfrmig-54" value="Consumer API" style="strokeColor=inherit;fillColor=inherit;gradientColor=inherit;fontColor=inherit;html=1;shadow=0;dashed=0;perimeter=none;whiteSpace=wrap;resizeWidth=1;align=left;spacing=10;" parent="_nd24bV_BVmbwUGfrmig-51" vertex="1">
                    <mxGeometry width="200" height="30" relative="1" as="geometry">
                        <mxPoint y="60" as="offset"/>
                    </mxGeometry>
                </mxCell>
                <mxCell id="_nd24bV_BVmbwUGfrmig-55" value="Kafka Streams API" style="strokeColor=inherit;fillColor=inherit;gradientColor=inherit;fontColor=inherit;html=1;shadow=0;dashed=0;perimeter=none;whiteSpace=wrap;resizeWidth=1;align=left;spacing=10;" parent="_nd24bV_BVmbwUGfrmig-51" vertex="1">
                    <mxGeometry width="200" height="30" relative="1" as="geometry">
                        <mxPoint y="90" as="offset"/>
                    </mxGeometry>
                </mxCell>
                <mxCell id="_nd24bV_BVmbwUGfrmig-56" value="Kafka Connect API" style="strokeColor=inherit;fillColor=inherit;gradientColor=inherit;fontColor=inherit;html=1;shadow=0;dashed=0;shape=mxgraph.bootstrap.bottomButton;rSize=5;perimeter=none;whiteSpace=wrap;resizeWidth=1;resizeHeight=0;align=left;spacing=10;" parent="_nd24bV_BVmbwUGfrmig-51" vertex="1">
                    <mxGeometry y="1" width="200" height="30" relative="1" as="geometry">
                        <mxPoint y="-30" as="offset"/>
                    </mxGeometry>
                </mxCell>
                <mxCell id="_nd24bV_BVmbwUGfrmig-59" style="edgeStyle=none;rounded=0;orthogonalLoop=1;jettySize=auto;html=1;" parent="_nd24bV_BVmbwUGfrmig-51" target="_nd24bV_BVmbwUGfrmig-58" edge="1">
                    <mxGeometry relative="1" as="geometry">
                        <mxPoint x="195" y="14" as="sourcePoint"/>
                    </mxGeometry>
                </mxCell>
                <mxCell id="_nd24bV_BVmbwUGfrmig-58" value="manage and insepct topics, brokers and other kafka objects" style="html=1;shadow=0;dashed=0;shape=mxgraph.bootstrap.rrect;rSize=5;strokeColor=#FDFDFE;strokeWidth=1;fillColor=#FEFEFE;fontColor=#818182;whiteSpace=wrap;align=left;verticalAlign=middle;spacingLeft=10;rounded=1;glass=0;sketch=0;" parent="B0MaQuvVMIJv4OG2VFpb-1" vertex="1">
                    <mxGeometry x="460" y="645" width="350" height="25" as="geometry"/>
                </mxCell>
                <mxCell id="_nd24bV_BVmbwUGfrmig-60" style="edgeStyle=none;rounded=0;orthogonalLoop=1;jettySize=auto;html=1;" parent="B0MaQuvVMIJv4OG2VFpb-1" target="_nd24bV_BVmbwUGfrmig-61" edge="1">
                    <mxGeometry relative="1" as="geometry">
                        <mxPoint x="420" y="694" as="sourcePoint"/>
                    </mxGeometry>
                </mxCell>
                <mxCell id="_nd24bV_BVmbwUGfrmig-61" value="write a stream of events to one or more Kafka topics" style="html=1;shadow=0;dashed=0;shape=mxgraph.bootstrap.rrect;rSize=5;strokeColor=#FDFDFE;strokeWidth=1;fillColor=#FEFEFE;fontColor=#818182;whiteSpace=wrap;align=left;verticalAlign=middle;spacingLeft=10;rounded=1;glass=0;sketch=0;" parent="B0MaQuvVMIJv4OG2VFpb-1" vertex="1">
                    <mxGeometry x="460" y="680" width="350" height="25" as="geometry"/>
                </mxCell>
                <mxCell id="_nd24bV_BVmbwUGfrmig-62" style="edgeStyle=none;rounded=0;orthogonalLoop=1;jettySize=auto;html=1;" parent="B0MaQuvVMIJv4OG2VFpb-1" target="_nd24bV_BVmbwUGfrmig-63" edge="1">
                    <mxGeometry relative="1" as="geometry">
                        <mxPoint x="420" y="721.5" as="sourcePoint"/>
                    </mxGeometry>
                </mxCell>
                <mxCell id="_nd24bV_BVmbwUGfrmig-63" value="subscribe to (read) one or more topics and to process the stream of events produced to them" style="html=1;shadow=0;dashed=0;shape=mxgraph.bootstrap.rrect;rSize=5;strokeColor=#FDFDFE;strokeWidth=1;fillColor=#FEFEFE;fontColor=#818182;whiteSpace=wrap;align=left;verticalAlign=middle;spacingLeft=10;rounded=1;glass=0;sketch=0;" parent="B0MaQuvVMIJv4OG2VFpb-1" vertex="1">
                    <mxGeometry x="460" y="707.5" width="540" height="25" as="geometry"/>
                </mxCell>
                <mxCell id="_nd24bV_BVmbwUGfrmig-64" style="edgeStyle=none;rounded=0;orthogonalLoop=1;jettySize=auto;html=1;" parent="B0MaQuvVMIJv4OG2VFpb-1" target="_nd24bV_BVmbwUGfrmig-65" edge="1">
                    <mxGeometry relative="1" as="geometry">
                        <mxPoint x="420" y="754" as="sourcePoint"/>
                    </mxGeometry>
                </mxCell>
                <mxCell id="_nd24bV_BVmbwUGfrmig-65" value="implement stream processing applications and microservices." style="html=1;shadow=0;dashed=0;shape=mxgraph.bootstrap.rrect;rSize=5;strokeColor=#FDFDFE;strokeWidth=1;fillColor=#FEFEFE;fontColor=#818182;whiteSpace=wrap;align=left;verticalAlign=middle;spacingLeft=10;rounded=1;glass=0;sketch=0;" parent="B0MaQuvVMIJv4OG2VFpb-1" vertex="1">
                    <mxGeometry x="460" y="740" width="350" height="25" as="geometry"/>
                </mxCell>
                <mxCell id="_nd24bV_BVmbwUGfrmig-66" style="edgeStyle=none;rounded=0;orthogonalLoop=1;jettySize=auto;html=1;" parent="B0MaQuvVMIJv4OG2VFpb-1" target="_nd24bV_BVmbwUGfrmig-67" edge="1">
                    <mxGeometry relative="1" as="geometry">
                        <mxPoint x="420" y="784" as="sourcePoint"/>
                    </mxGeometry>
                </mxCell>
                <mxCell id="_nd24bV_BVmbwUGfrmig-67" value="build and run reusable data import/export connectors that consume(read) or produce(write) streams of events from and to external systems and applications so they can integrate with Kafka" style="html=1;shadow=0;dashed=0;shape=mxgraph.bootstrap.rrect;rSize=5;strokeColor=#FDFDFE;strokeWidth=1;fillColor=#FEFEFE;fontColor=#818182;whiteSpace=wrap;align=left;verticalAlign=middle;spacingLeft=10;rounded=1;glass=0;sketch=0;" parent="B0MaQuvVMIJv4OG2VFpb-1" vertex="1">
                    <mxGeometry x="460" y="770" width="540" height="25" as="geometry"/>
                </mxCell>
            </root>
        </mxGraphModel>
    </diagram>
    <diagram id="vkIOQybx-PL-XWIHuseo" name="eventstream">
        <mxGraphModel dx="952" dy="762" grid="1" gridSize="10" guides="1" tooltips="1" connect="1" arrows="1" fold="1" page="1" pageScale="1" pageWidth="850" pageHeight="1100" math="0" shadow="0">
            <root>
                <mxCell id="0"/>
                <mxCell id="1" parent="0"/>
                <mxCell id="11" value="Event Stream" style="rounded=1;whiteSpace=wrap;html=1;" parent="1" vertex="1">
                    <mxGeometry x="100" y="250" width="120" height="60" as="geometry"/>
                </mxCell>
            </root>
        </mxGraphModel>
    </diagram>
</mxfile>